<svg width="42" height="42" viewBox="0 0 42 42" fill="none" xmlns="http://www.w3.org/2000/svg">
<circle cx="21.332" cy="20.6877" r="19.5558" fill="#06B1FB" stroke="black" stroke-width="2"/>
<path d="M17.4694 25.3369C19.6694 25.3369 21.4694 23.5495 21.4694 21.3812C21.4694 20.2482 20.8994 19.1738 19.7594 18.2654C18.6194 17.3571 17.7594 16.0092 17.4694 14.593C17.1794 16.0092 16.3294 17.3669 15.1794 18.2654C14.0294 19.164 13.4694 20.258 13.4694 21.3812C13.4694 23.5495 15.2694 25.3369 17.4694 25.3369Z" fill="white" stroke="black" stroke-width="2" stroke-linecap="round" stroke-linejoin="round"/>
<path d="M20.7544 14.9011C21.4422 13.8278 21.9297 12.644 22.1944 11.4044C22.6944 13.8463 24.1944 16.1904 26.1944 17.7532C28.1944 19.3159 29.1944 21.1717 29.1944 23.1251C29.2001 24.4753 28.7953 25.7966 28.0312 26.9218C27.2671 28.0469 26.1782 28.9251 24.9026 29.445C23.6269 29.965 22.2218 30.1033 20.8656 29.8424C19.5094 29.5814 18.263 28.9331 17.2844 27.9795" stroke="black" stroke-width="2" stroke-linecap="round" stroke-linejoin="round"/>
</svg>
