<svg width="29" height="28" viewBox="0 0 29 28" fill="none" xmlns="http://www.w3.org/2000/svg">
<rect x="0.730469" y="0.206497" width="27.297" height="27.297" rx="13.6485" fill="#F9F5FF"/>
<path d="M20.0274 19.5035H9.73464C9.38315 19.5035 9.2074 19.5035 9.07315 19.4351C8.95506 19.3749 8.85905 19.2789 8.79887 19.1608C8.73047 19.0265 8.73047 18.8508 8.73047 18.4993V8.2065M20.0274 10.7169L16.6168 14.1276C16.4925 14.2518 16.4304 14.314 16.3587 14.3372C16.2957 14.3577 16.2278 14.3577 16.1648 14.3372C16.0932 14.314 16.031 14.2518 15.9067 14.1276L14.734 12.9548C14.6097 12.8305 14.5476 12.7684 14.4759 12.7451C14.4129 12.7246 14.345 12.7246 14.282 12.7451C14.2103 12.7684 14.1482 12.8305 14.0239 12.9548L11.2409 15.7378M20.0274 10.7169H17.517M20.0274 10.7169V13.2274" stroke="#9E77ED" stroke-width="1.25522" stroke-linecap="round" stroke-linejoin="round"/>
</svg>
