<svg width="25" height="25" viewBox="0 0 25 25" fill="none" xmlns="http://www.w3.org/2000/svg">
<path d="M21.027 6.24701C21.027 7.90386 16.9975 9.24701 12.027 9.24701C7.05641 9.24701 3.02698 7.90386 3.02698 6.24701C3.02698 4.59016 7.05641 3.24701 12.027 3.24701C16.9975 3.24701 21.027 4.59016 21.027 6.24701Z" fill="white"/>
<path d="M16.527 20.7472C15.2735 21.061 13.7154 21.247 12.027 21.247C10.3386 21.247 8.78047 21.061 7.52698 20.7472M18.027 16.6776C16.5611 17.2312 14.4164 17.5803 12.027 17.5803C9.63759 17.5803 7.49287 17.2312 6.02698 16.6776M4.52698 11.9149C5.95841 12.8068 8.78009 13.4137 12.027 13.4137C15.2739 13.4137 18.0955 12.8068 19.527 11.9149M21.027 6.24701C21.027 7.90386 16.9975 9.24701 12.027 9.24701C7.05641 9.24701 3.02698 7.90386 3.02698 6.24701C3.02698 4.59016 7.05641 3.24701 12.027 3.24701C16.9975 3.24701 21.027 4.59016 21.027 6.24701Z" stroke="#0BA2E3" stroke-width="2" stroke-linecap="round" stroke-linejoin="round"/>
</svg>
