<svg width="28" height="28" viewBox="0 0 28 28" fill="none" xmlns="http://www.w3.org/2000/svg">
<mask id="path-1-inside-1_1064_4850" fill="white">
<path d="M0 0.403442H23.297C25.5061 0.403442 27.297 2.1943 27.297 4.40344V27.7004H0V0.403442Z"/>
</mask>
<path d="M0 0.403442H23.297C25.5061 0.403442 27.297 2.1943 27.297 4.40344V27.7004H0V0.403442Z" fill="#F9F5FF"/>
<path d="M19.297 19.7004H9.00417C8.65268 19.7004 8.47693 19.7004 8.34268 19.632C8.22459 19.5718 8.12858 19.4758 8.06841 19.3577C8 19.2235 8 19.0477 8 18.6962V8.40344M19.297 10.9139L15.8863 14.3245C15.7621 14.4488 15.6999 14.5109 15.6283 14.5342C15.5653 14.5547 15.4974 14.5547 15.4343 14.5342C15.3627 14.5109 15.3006 14.4488 15.1763 14.3245L14.0035 13.1517C13.8792 13.0275 13.8171 12.9653 13.7455 12.942C13.6824 12.9216 13.6145 12.9216 13.5515 12.942C13.4799 12.9653 13.4177 13.0275 13.2935 13.1517L10.5104 15.9347M19.297 10.9139H16.7865M19.297 10.9139V13.4243" stroke="#9E77ED" stroke-width="1.25522" stroke-linecap="round" stroke-linejoin="round"/>
<path d="M-2 -0.396558H23.297C25.9479 -0.396558 28.097 1.75248 28.097 4.40344L26.497 4.40344C26.497 2.63613 25.0643 1.20344 23.297 1.20344H2L-2 -0.396558ZM28.097 29.7004H-2L2 25.7004H26.497L28.097 29.7004ZM-2 29.7004V-0.396558L2 1.20344V25.7004L-2 29.7004ZM23.297 -0.396558C25.9479 -0.396558 28.097 1.75248 28.097 4.40344V29.7004L26.497 25.7004V4.40344C26.497 2.63613 25.0643 1.20344 23.297 1.20344L23.297 -0.396558Z" fill="black" mask="url(#path-1-inside-1_1064_4850)"/>
</svg>
