<svg width="22" height="23" viewBox="0 0 22 23" fill="none" xmlns="http://www.w3.org/2000/svg">
<path d="M11 21.126C16.5228 21.126 21 16.6488 21 11.126C21 5.60313 16.5228 1.12598 11 1.12598C5.47715 1.12598 1 5.60313 1 11.126C1 16.6488 5.47715 21.126 11 21.126Z" fill="white"/>
<path d="M13.7221 7.39194C14.2107 7.22909 14.4549 7.14767 14.6174 7.20559C14.7587 7.256 14.87 7.36724 14.9204 7.50861C14.9783 7.67105 14.8969 7.91532 14.734 8.40387L13.2465 12.8665C13.2001 13.0056 13.1769 13.0752 13.1374 13.133C13.1024 13.1842 13.0582 13.2284 13.007 13.2634C12.9492 13.3029 12.8797 13.3261 12.7405 13.3725L8.27789 14.86C7.78935 15.0229 7.54507 15.1043 7.38263 15.0464C7.24127 14.9959 7.13003 14.8847 7.07962 14.7433C7.02169 14.5809 7.10312 14.3366 7.26596 13.8481L8.75351 9.38545C8.79989 9.24631 8.82308 9.17674 8.8626 9.11897C8.8976 9.06779 8.94182 9.02358 8.99299 8.98858C9.05076 8.94906 9.12033 8.92587 9.25947 8.87949L13.7221 7.39194Z" fill="white"/>
<path d="M11 21.126C16.5228 21.126 21 16.6488 21 11.126C21 5.60313 16.5228 1.12598 11 1.12598C5.47715 1.12598 1 5.60313 1 11.126C1 16.6488 5.47715 21.126 11 21.126Z" stroke="#0BA2E3" stroke-width="2" stroke-linecap="round" stroke-linejoin="round"/>
<path d="M13.7221 7.39194C14.2107 7.22909 14.4549 7.14767 14.6174 7.20559C14.7587 7.256 14.87 7.36724 14.9204 7.50861C14.9783 7.67105 14.8969 7.91532 14.734 8.40387L13.2465 12.8665C13.2001 13.0056 13.1769 13.0752 13.1374 13.133C13.1024 13.1842 13.0582 13.2284 13.007 13.2634C12.9492 13.3029 12.8797 13.3261 12.7405 13.3725L8.27789 14.86C7.78935 15.0229 7.54507 15.1043 7.38263 15.0464C7.24127 14.9959 7.13003 14.8847 7.07962 14.7433C7.02169 14.5809 7.10312 14.3366 7.26596 13.8481L8.75351 9.38545C8.79989 9.24631 8.82308 9.17674 8.8626 9.11897C8.8976 9.06779 8.94182 9.02358 8.99299 8.98858C9.05076 8.94906 9.12033 8.92587 9.25947 8.87949L13.7221 7.39194Z" stroke="#0BA2E3" stroke-width="2" stroke-linecap="round" stroke-linejoin="round"/>
</svg>
