<svg width="24" height="25" viewBox="0 0 24 25" fill="none" xmlns="http://www.w3.org/2000/svg">
<path d="M16.7639 6.62598C17.3132 6.01223 18.1115 5.62598 19 5.62598C20.6569 5.62598 22 6.96912 22 8.62598C22 10.2828 20.6569 11.626 19 11.626H13M6.7639 4.12598C7.31322 3.51223 8.1115 3.12598 9 3.12598C10.6569 3.12598 12 4.46912 12 6.12598C12 7.78283 10.6569 9.12598 9 9.12598H2M10.7639 20.126C11.3132 20.7397 12.1115 21.126 13 21.126C14.6569 21.126 16 19.7828 16 18.126C16 16.4691 14.6569 15.126 13 15.126H2" stroke="#0BA2E3" stroke-width="2" stroke-linecap="round" stroke-linejoin="round"/>
</svg>
