<svg width="24" height="27" viewBox="0 0 24 27" fill="none" xmlns="http://www.w3.org/2000/svg">
<path d="M11.8506 6.0564C12.4339 6.0564 12.8923 5.57078 12.8923 4.98977C12.8923 4.40876 12.4339 3.92315 11.8506 3.92315H9.08212C8.7225 2.33105 7.33459 1.13157 5.66873 1.13157C3.72794 1.13157 2.16388 2.75839 2.16388 4.74052V17.4433C1.17487 18.422 0.618418 19.7614 0.618418 21.1909C0.618418 24.0526 2.87576 26.395 5.66873 26.395C8.46169 26.395 10.719 24.0526 10.719 21.1909C10.719 19.7613 10.1626 18.422 9.17357 17.4433V16.0263H9.91875C10.5021 16.0263 10.9605 15.5407 10.9605 14.9597C10.9605 14.3787 10.5021 13.8931 9.91875 13.8931H9.17357V11.0414H10.8847C11.468 11.0414 11.9264 10.5557 11.9264 9.97472C11.9264 9.39371 11.468 8.9081 10.8847 8.9081H9.17357V6.0564H11.8506Z" fill="black" stroke="white" stroke-width="0.538065"/>
<path d="M7.68351 18.5558C8.47647 19.1936 8.93122 20.154 8.93122 21.1909C8.93122 23.0325 7.47965 24.5308 5.69541 24.5308C3.91117 24.5308 2.45959 23.0325 2.45959 21.1909C2.45959 20.154 2.91435 19.1936 3.70731 18.5558C3.89523 18.4047 4.00506 18.1726 4.00506 17.9267V4.74049C4.00506 3.77845 4.76335 2.99576 5.69541 2.99576C6.62747 2.99576 7.38576 3.77845 7.38576 4.74049V11.3336V17.9267C7.38576 18.1726 7.49559 18.4047 7.68351 18.5558Z" fill="white"/>
<path d="M5.69539 22.9703C6.68072 22.9703 7.48233 22.1429 7.48233 21.1259C7.48233 20.3944 7.06762 19.761 6.46812 19.463V9.46111C6.46812 9.02059 6.12218 8.66351 5.69539 8.66351C5.2686 8.66351 4.92266 9.02059 4.92266 9.46111V19.463C4.32316 19.761 3.90845 20.3944 3.90845 21.1259C3.90845 22.1429 4.71006 22.9703 5.69539 22.9703Z" fill="#0BA2E3"/>
<path d="M15.3183 4.89793C15.3183 4.71063 15.3645 4.53956 15.4569 4.38473C15.5493 4.22739 15.6729 4.10253 15.8278 4.01013C15.9826 3.91773 16.1524 3.87152 16.3372 3.87152C16.5195 3.87152 16.6869 3.91773 16.8392 4.01013C16.9915 4.10253 17.1126 4.22739 17.2026 4.38473C17.2925 4.53956 17.3374 4.71063 17.3374 4.89793C17.3374 5.08523 17.2925 5.2563 17.2026 5.41113C17.1126 5.56347 16.9915 5.68459 16.8392 5.77449C16.6869 5.8644 16.5195 5.90935 16.3372 5.90935C16.1524 5.90935 15.9826 5.8644 15.8278 5.77449C15.6729 5.68459 15.5493 5.56347 15.4569 5.41113C15.3645 5.2563 15.3183 5.08523 15.3183 4.89793ZM15.8577 4.89793C15.8577 5.03278 15.9052 5.14516 16.0001 5.23507C16.095 5.32497 16.2074 5.36992 16.3372 5.36992C16.4671 5.36992 16.5757 5.32497 16.6631 5.23507C16.7505 5.14516 16.7942 5.03278 16.7942 4.89793C16.7942 4.76058 16.7505 4.6457 16.6631 4.5533C16.5757 4.4609 16.4671 4.41469 16.3372 4.41469C16.2074 4.41469 16.095 4.4609 16.0001 4.5533C15.9052 4.6457 15.8577 4.76058 15.8577 4.89793ZM21.4767 7.5913H22.5968C22.5743 7.95841 22.4732 8.28431 22.2934 8.56901C22.1161 8.8537 21.8676 9.07597 21.5479 9.2358C21.2308 9.39562 20.8487 9.47554 20.4016 9.47554C20.052 9.47554 19.7386 9.4156 19.4614 9.29573C19.1842 9.17336 18.9469 8.99855 18.7497 8.77129C18.5549 8.54403 18.4063 8.26933 18.3039 7.94717C18.2015 7.62502 18.1503 7.26415 18.1503 6.86458V6.48623C18.1503 6.08666 18.2027 5.72579 18.3076 5.40364C18.415 5.07899 18.5673 4.80303 18.7646 4.57577C18.9644 4.34852 19.2029 4.1737 19.4801 4.05133C19.7573 3.92896 20.067 3.86778 20.4091 3.86778C20.8636 3.86778 21.247 3.95019 21.5592 4.11501C21.8738 4.27984 22.1173 4.5071 22.2896 4.79679C22.4644 5.08648 22.5693 5.41613 22.6043 5.78573H21.4805C21.468 5.56597 21.4243 5.37991 21.3494 5.22758C21.2745 5.07274 21.1608 4.95662 21.0085 4.8792C20.8586 4.79928 20.6589 4.75933 20.4091 4.75933C20.2218 4.75933 20.0583 4.79429 19.9184 4.86421C19.7786 4.93414 19.6612 5.04028 19.5663 5.18262C19.4714 5.32497 19.4002 5.50478 19.3528 5.72205C19.3078 5.93682 19.2853 6.18905 19.2853 6.47874V6.86458C19.2853 7.14678 19.3066 7.39526 19.349 7.61003C19.3915 7.82231 19.4564 8.00211 19.5438 8.14946C19.6337 8.2943 19.7486 8.40418 19.8884 8.4791C20.0308 8.55153 20.2018 8.58774 20.4016 8.58774C20.6364 8.58774 20.8299 8.55028 20.9823 8.47536C21.1346 8.40044 21.2507 8.28931 21.3306 8.14196C21.4131 7.99462 21.4618 7.81107 21.4767 7.5913Z" fill="#0BA2E3"/>
</svg>
