<svg width="18" height="24" viewBox="0 0 18 24" fill="none" xmlns="http://www.w3.org/2000/svg">
<path d="M8.88226 3.5592L3.99702 8.69338C3.03093 9.7088 2.37304 11.0025 2.10653 12.4109C1.84003 13.8192 1.97688 15.279 2.49978 16.6056C3.02268 17.9323 3.90815 19.0662 5.04422 19.8639C6.18029 20.6617 7.51594 21.0875 8.88226 21.0875C10.2486 21.0875 11.5842 20.6617 12.7203 19.8639C13.8564 19.0662 14.7418 17.9323 15.2647 16.6056C15.7877 15.279 15.9245 13.8192 15.658 12.4109C15.3915 11.0025 14.7336 9.7088 13.7675 8.69338L8.88226 3.5592ZM8.88226 0.625984L15.163 7.22677C16.4052 8.53228 17.2511 10.1956 17.5939 12.0064C17.9366 13.8172 17.7607 15.6941 17.0884 17.3998C16.4161 19.1055 15.2776 20.5634 13.817 21.5891C12.3563 22.6149 10.639 23.1623 8.88226 23.1623C7.12552 23.1623 5.40823 22.6149 3.94756 21.5891C2.48688 20.5634 1.34842 19.1055 0.676136 17.3998C0.00385574 15.6941 -0.172049 13.8172 0.170666 12.0064C0.513381 10.1956 1.35932 8.53228 2.60152 7.22677L8.88226 0.625984Z" fill="#0BA2E3"/>
<path d="M8.8823 3.54857L3.99706 8.68274C3.03097 9.69816 2.37308 10.9919 2.10657 12.4002C1.84007 13.8086 1.97692 15.2684 2.49982 16.595C3.02272 17.9216 3.90819 19.0555 5.04426 19.8533C6.18033 20.651 7.51598 21.0768 8.8823 21.0768C10.2486 21.0768 11.5843 20.651 12.7203 19.8533C13.8564 19.0555 14.7419 17.9216 15.2648 16.595C15.7877 15.2684 15.9245 13.8086 15.658 12.4002C15.3915 10.9919 14.7336 9.69816 13.7675 8.68274L8.8823 3.54857Z" fill="white"/>
</svg>
