<svg width="12" height="12" viewBox="0 0 12 12" fill="none" xmlns="http://www.w3.org/2000/svg">
<path d="M10.8206 10.8206H1.8487C1.54231 10.8206 1.38912 10.8206 1.27209 10.761C1.16916 10.7086 1.08547 10.6249 1.03302 10.5219C0.973389 10.4049 0.973389 10.2517 0.973389 9.94533V0.973389M10.8206 3.16167L7.8477 6.13462C7.73937 6.24294 7.68521 6.2971 7.62275 6.3174C7.56782 6.33525 7.50864 6.33525 7.4537 6.3174C7.39124 6.2971 7.33708 6.24294 7.22876 6.13462L6.20649 5.11235C6.09816 5.00402 6.044 4.94986 5.98154 4.92957C5.92661 4.91172 5.86743 4.91172 5.81249 4.92957C5.75003 4.94986 5.69587 5.00402 5.58755 5.11235L3.16167 7.53823M10.8206 3.16167H8.63237M10.8206 3.16167V5.34995" stroke="#9E77ED" stroke-width="1.09414" stroke-linecap="round" stroke-linejoin="round"/>
</svg>
